<svg width="245" height="151" viewBox="0 0 245 151" fill="none" xmlns="http://www.w3.org/2000/svg">
<g id="&#208;&#190;&#208;&#177;&#208;&#187;&#208;&#176;&#208;&#186;&#208;&#190;2">
<g id="Vector" opacity="0.5">
<path d="M126.731 68.8772C126.731 99.114 98.3617 123.626 63.3657 123.626C28.3698 123.626 0 99.114 0 68.8772C0 38.6404 28.3698 14.1287 63.3657 14.1287C98.3617 14.1287 126.731 38.6404 126.731 68.8772Z" fill="white"/>
<path d="M209.516 51.2164C209.516 79.5024 182.976 102.433 150.238 102.433C117.5 102.433 90.9605 79.5024 90.9605 51.2164C90.9605 22.9304 117.5 0 150.238 0C182.976 0 209.516 22.9304 209.516 51.2164Z" fill="white"/>
<path d="M244.265 84.7719C244.265 107.206 223.216 125.392 197.251 125.392C171.287 125.392 150.238 107.206 150.238 84.7719C150.238 62.3382 171.287 44.152 197.251 44.152C223.216 44.152 244.265 62.3382 244.265 84.7719Z" fill="white"/>
<path d="M172.723 102.433C172.723 129.256 147.556 151 116.511 151C85.4664 151 60.2997 129.256 60.2997 102.433C60.2997 75.6098 85.4664 53.8655 116.511 53.8655C147.556 53.8655 172.723 75.6098 172.723 102.433Z" fill="white"/>
</g>
</g>
</svg>
