<svg width="40" height="40" viewBox="0 0 40 40" fill="none" xmlns="http://www.w3.org/2000/svg">
<g id="Icon/Heart">
<path id="Vector" d="M19.6369 9.94759L20 10.3311L20.3631 9.94759C23.8358 6.27979 27.6101 5.85918 30.4892 7.19701C33.4021 8.55056 35.5 11.7463 35.5 15.5185C35.5 19.3198 33.9604 22.2386 31.8195 24.6893C30.0711 26.6906 27.9474 28.3544 25.9367 29.9296C25.4657 30.2986 25.0009 30.6627 24.5486 31.0252C23.7133 31.6945 22.9249 32.3181 22.1523 32.777C21.3794 33.2362 20.671 33.5 20 33.5C19.329 33.5 18.6206 33.2362 17.8477 32.777C17.0751 32.3181 16.2867 31.6945 15.4514 31.0252C14.9991 30.6627 14.5343 30.2985 14.0633 29.9295C12.0526 28.3543 9.92896 26.6906 8.18055 24.6893C6.03965 22.2386 4.5 19.3198 4.5 15.5185C4.5 11.7463 6.59786 8.55056 9.51079 7.19701C12.3899 5.85918 16.1641 6.27979 19.6369 9.94759Z" stroke="#F40C0C"/>
</g>
</svg>
