<svg width="111" height="32" viewBox="0 0 111 32" fill="none" xmlns="http://www.w3.org/2000/svg">
<path d="M67.458 9.2V19H64.154V15.388H61.102V19H57.798V9.2H61.102V12.672H64.154V9.2H67.458ZM74.188 19.224C73.1333 19.224 72.186 19.0047 71.346 18.566C70.506 18.1273 69.848 17.5207 69.372 16.746C68.896 15.962 68.658 15.08 68.658 14.1C68.658 13.12 68.896 12.2427 69.372 11.468C69.848 10.684 70.506 10.0727 71.346 9.634C72.186 9.19533 73.1333 8.976 74.188 8.976C75.2426 8.976 76.19 9.19533 77.03 9.634C77.87 10.0727 78.528 10.684 79.004 11.468C79.48 12.2427 79.718 13.12 79.718 14.1C79.718 15.08 79.48 15.962 79.004 16.746C78.528 17.5207 77.87 18.1273 77.03 18.566C76.19 19.0047 75.2426 19.224 74.188 19.224ZM74.188 16.55C74.5986 16.55 74.9673 16.452 75.294 16.256C75.63 16.0507 75.896 15.766 76.092 15.402C76.288 15.0287 76.386 14.5947 76.386 14.1C76.386 13.6053 76.288 13.176 76.092 12.812C75.896 12.4387 75.63 12.154 75.294 11.958C74.9673 11.7527 74.5986 11.65 74.188 11.65C73.7773 11.65 73.404 11.7527 73.068 11.958C72.7413 12.154 72.48 12.4387 72.284 12.812C72.088 13.176 71.99 13.6053 71.99 14.1C71.99 14.5947 72.088 15.0287 72.284 15.402C72.48 15.766 72.7413 16.0507 73.068 16.256C73.404 16.452 73.7773 16.55 74.188 16.55ZM85.6071 19.224C84.1045 19.224 82.9331 18.818 82.0931 18.006C81.2531 17.194 80.8331 16.0553 80.8331 14.59V9.2H84.1371V14.492C84.1371 15.2107 84.2631 15.7333 84.5151 16.06C84.7765 16.3867 85.1498 16.55 85.6351 16.55C86.1205 16.55 86.4891 16.3867 86.7411 16.06C87.0025 15.7333 87.1331 15.2107 87.1331 14.492V9.2H90.3811V14.59C90.3811 16.0553 89.9611 17.194 89.1211 18.006C88.2811 18.818 87.1098 19.224 85.6071 19.224ZM96.0957 16.536H95.1997V19H91.8957V9.2H96.6137C97.519 9.2 98.3077 9.34933 98.9797 9.648C99.6517 9.94667 100.17 10.376 100.534 10.936C100.898 11.496 101.08 12.1493 101.08 12.896C101.08 13.596 100.921 14.2073 100.604 14.73C100.286 15.2527 99.829 15.668 99.2317 15.976L101.29 19H97.7617L96.0957 16.536ZM97.7477 12.896C97.7477 12.532 97.6357 12.252 97.4117 12.056C97.1877 11.8507 96.8517 11.748 96.4037 11.748H95.1997V14.044H96.4037C96.8517 14.044 97.1877 13.946 97.4117 13.75C97.6357 13.5447 97.7477 13.26 97.7477 12.896ZM105.981 19.224C105.169 19.224 104.376 19.1353 103.601 18.958C102.836 18.7713 102.206 18.524 101.711 18.216L102.775 15.808C103.242 16.0787 103.765 16.298 104.343 16.466C104.922 16.6247 105.477 16.704 106.009 16.704C106.467 16.704 106.793 16.662 106.989 16.578C107.185 16.4847 107.283 16.3493 107.283 16.172C107.283 15.9667 107.153 15.8127 106.891 15.71C106.639 15.6073 106.219 15.4953 105.631 15.374C104.875 15.2153 104.245 15.0473 103.741 14.87C103.237 14.6833 102.799 14.3847 102.425 13.974C102.052 13.554 101.865 12.9893 101.865 12.28C101.865 11.664 102.038 11.104 102.383 10.6C102.729 10.096 103.242 9.69933 103.923 9.41C104.614 9.12067 105.449 8.976 106.429 8.976C107.101 8.976 107.759 9.05067 108.403 9.2C109.057 9.34 109.631 9.55 110.125 9.83L109.131 12.224C108.17 11.7387 107.26 11.496 106.401 11.496C105.552 11.496 105.127 11.7013 105.127 12.112C105.127 12.308 105.253 12.4573 105.505 12.56C105.757 12.6533 106.173 12.756 106.751 12.868C107.498 13.008 108.128 13.1713 108.641 13.358C109.155 13.5353 109.598 13.8293 109.971 14.24C110.354 14.6507 110.545 15.2107 110.545 15.92C110.545 16.536 110.373 17.096 110.027 17.6C109.682 18.0947 109.164 18.4913 108.473 18.79C107.792 19.0793 106.961 19.224 105.981 19.224Z" fill="#FFB400"/>
<path d="M10.458 5.2V15H7.154V11.388H4.102V15H0.798V5.2H4.102V8.672H7.154V5.2H10.458ZM18.728 13.292H15.004L14.346 15H10.986L15.27 5.2H18.518L22.802 15H19.386L18.728 13.292ZM17.818 10.912L16.866 8.448L15.914 10.912H17.818ZM28.0473 5.2C28.9526 5.2 29.7413 5.34933 30.4133 5.648C31.0853 5.94667 31.6033 6.376 31.9673 6.936C32.3313 7.496 32.5133 8.14933 32.5133 8.896C32.5133 9.64267 32.3313 10.296 31.9673 10.856C31.6033 11.416 31.0853 11.8453 30.4133 12.144C29.7413 12.4427 28.9526 12.592 28.0473 12.592H26.6333V15H23.3293V5.2H28.0473ZM27.8373 10.044C28.2853 10.044 28.6213 9.946 28.8453 9.75C29.0693 9.54467 29.1813 9.26 29.1813 8.896C29.1813 8.532 29.0693 8.252 28.8453 8.056C28.6213 7.85067 28.2853 7.748 27.8373 7.748H26.6333V10.044H27.8373ZM38.3148 5.2C39.2202 5.2 40.0088 5.34933 40.6808 5.648C41.3528 5.94667 41.8708 6.376 42.2348 6.936C42.5988 7.496 42.7808 8.14933 42.7808 8.896C42.7808 9.64267 42.5988 10.296 42.2348 10.856C41.8708 11.416 41.3528 11.8453 40.6808 12.144C40.0088 12.4427 39.2202 12.592 38.3148 12.592H36.9008V15H33.5968V5.2H38.3148ZM38.1048 10.044C38.5528 10.044 38.8888 9.946 39.1128 9.75C39.3368 9.54467 39.4488 9.26 39.4488 8.896C39.4488 8.532 39.3368 8.252 39.1128 8.056C38.8888 7.85067 38.5528 7.748 38.1048 7.748H36.9008V10.044H38.1048ZM49.6884 11.444V15H46.3844V11.402L42.6884 5.2H46.1744L48.1764 8.588L50.1924 5.2H53.3844L49.6884 11.444Z" fill="#FF8201"/>
<rect x="1" y="17" width="53" height="2" rx="1" fill="#F40C0C"/>
<rect x="58" y="5" width="53" height="2" rx="1" fill="#F40C0C"/>
<path d="M44.6017 21.7284C44.5115 22.1561 44.4349 22.5782 44.3719 22.9946C44.3089 23.411 44.2362 23.8234 44.1539 24.2319C44.0809 24.6397 43.9936 25.0438 43.892 25.4443C43.799 25.8349 43.6771 26.2135 43.5262 26.5802C43.5303 26.636 43.5105 26.6843 43.4667 26.7249C43.4315 26.7556 43.3827 26.7919 43.3203 26.834C43.2492 26.886 43.1742 26.9476 43.0952 27.0189C43.0255 27.0896 42.9602 27.1552 42.8991 27.2158C42.8387 27.2858 42.7777 27.3464 42.716 27.3977C42.6549 27.4584 42.5964 27.4908 42.5406 27.4949C42.4847 27.499 42.4351 27.4605 42.3917 27.3794C42.3002 27.1522 42.2123 26.9107 42.128 26.6548C42.053 26.3983 41.9776 26.1371 41.9019 25.8713C41.8263 25.6054 41.7509 25.3443 41.6759 25.0877C41.6009 24.8312 41.5266 24.584 41.453 24.3461L39.8112 26.839C39.7788 26.9069 39.7463 26.9748 39.7139 27.0427C39.6807 27.1013 39.6369 27.1419 39.5825 27.1647C39.5645 27.1753 39.5466 27.186 39.5287 27.1967C39.5114 27.2167 39.4892 27.2323 39.4619 27.2437C39.444 27.2544 39.4157 27.2518 39.3771 27.2359C39.3478 27.2193 39.3125 27.1845 39.2712 27.1314C39.1245 26.9175 38.9857 26.6844 38.8548 26.432C38.7233 26.1703 38.6004 25.8985 38.4861 25.6168C38.3812 25.3344 38.2808 25.0517 38.1852 24.7686C38.0988 24.4848 38.0175 24.2054 37.9411 23.9302C37.917 23.8571 37.9076 23.7923 37.9128 23.7358C37.9173 23.6699 37.9261 23.5991 37.9393 23.5232C37.9504 23.4195 37.9804 23.319 38.0295 23.2218C38.0705 23.1439 38.103 23.0761 38.1268 23.0182C38.1506 22.9603 38.1901 22.9246 38.2453 22.9112C38.3104 22.9064 38.3377 22.895 38.327 22.8771C38.3256 22.8585 38.3489 22.8568 38.3968 22.872C38.4447 22.8872 38.485 22.9263 38.5177 22.9894C38.5505 23.0525 38.5775 23.102 38.5988 23.1379C38.6525 23.3586 38.7128 23.6068 38.7799 23.8826C38.8556 24.1485 38.9316 24.419 39.0079 24.6941C39.0843 24.9693 39.16 25.2351 39.235 25.4916C39.3186 25.7382 39.3952 25.9525 39.4647 26.1345C39.5589 26.0153 39.6848 25.8189 39.8425 25.5453C40.0002 25.2716 40.1755 24.9827 40.3684 24.6784C40.5607 24.3648 40.7635 24.0692 40.9771 23.7914C41.19 23.5044 41.3987 23.2879 41.6032 23.1418L41.6206 23.3792C41.6724 23.3192 41.7212 23.2829 41.767 23.2702C41.8122 23.2481 41.8581 23.2354 41.9046 23.232C41.9512 23.2286 41.9934 23.2301 42.0313 23.2367C42.0692 23.2433 42.0906 23.2792 42.0954 23.3443C42.1463 23.5277 42.2039 23.7388 42.2682 23.9774C42.3318 24.2066 42.3915 24.4456 42.4472 24.6942C42.5122 24.9421 42.5722 25.1857 42.6272 25.4249C42.6815 25.6549 42.7338 25.857 42.784 26.0311C42.89 25.8174 42.9849 25.5812 43.0689 25.3223C43.1614 25.0535 43.2493 24.785 43.3326 24.5168C43.4244 24.2387 43.5167 23.9652 43.6092 23.6964C43.7011 23.4182 43.804 23.1627 43.9179 22.9297C43.9748 22.8132 44.0457 22.6957 44.1306 22.5772C44.2148 22.4493 44.29 22.3268 44.3563 22.2096C44.406 22.1218 44.4421 22.0396 44.4645 21.9631C44.4963 21.8859 44.542 21.8076 44.6017 21.7284ZM47.0156 22.0003C47.0955 22.0693 47.1279 22.1277 47.1127 22.1756C47.1068 22.2229 47.0802 22.2435 47.033 22.2376C46.912 22.2465 46.778 22.2704 46.6312 22.3093C46.4929 22.3381 46.3407 22.368 46.1745 22.399C46.0169 22.4199 45.8494 22.4322 45.6719 22.4359C45.4943 22.4396 45.3151 22.42 45.1341 22.3771C45.0542 22.3081 45.0494 22.243 45.1197 22.1816C45.1987 22.1103 45.2571 22.0125 45.2947 21.888C45.3165 21.8022 45.3496 21.7436 45.3941 21.7123C45.4472 21.671 45.5014 21.6436 45.5565 21.6302C45.6589 21.6226 45.7863 21.6367 45.9386 21.6723C46.0996 21.6979 46.2316 21.7116 46.3347 21.7134C46.4943 21.7204 46.6267 21.7387 46.7318 21.7684C46.8363 21.7889 46.9308 21.8661 47.0156 22.0003ZM46.8618 23.9207C46.9334 24.1307 46.9896 24.3231 47.0306 24.4979C47.0808 24.672 47.1167 24.8425 47.1383 25.0094C47.1686 25.1662 47.1898 25.3285 47.2021 25.496C47.2237 25.6629 47.2417 25.844 47.2561 26.0395C47.2588 26.0767 47.2386 26.1203 47.1955 26.1703C47.161 26.2103 47.1362 26.2542 47.121 26.3021C47.0899 26.3886 47.0611 26.4422 47.0345 26.4629C47.0173 26.4829 46.9817 26.5089 46.9279 26.5409C46.8017 26.6063 46.6912 26.694 46.5963 26.8039C46.4623 26.6359 46.3635 26.4373 46.2999 26.208C46.2455 25.978 46.1998 25.7381 46.1628 25.4881C46.135 25.2375 46.1026 24.9872 46.0655 24.7372C46.037 24.4773 45.986 24.2284 45.9124 23.9904C45.8749 23.8622 45.8777 23.7731 45.9208 23.7231C45.9639 23.6731 46.0127 23.6368 46.0672 23.6141C46.131 23.5907 46.2019 23.5995 46.2797 23.6406C46.3669 23.681 46.4495 23.7217 46.5274 23.7628C46.5952 23.7952 46.6575 23.8141 46.714 23.8193C46.7792 23.8145 46.8284 23.8483 46.8618 23.9207ZM53.2829 23.056C53.3028 23.0733 53.3175 23.0815 53.3268 23.0809C53.3361 23.0802 53.3414 23.0891 53.3428 23.1078C53.3349 23.1271 53.3133 23.152 53.2781 23.1827C53.2516 23.2034 53.1967 23.2214 53.1137 23.2369C53.0864 23.2483 53.0505 23.2696 53.0061 23.301C52.9609 23.323 52.9247 23.3397 52.8974 23.351C52.6502 23.4254 52.3561 23.4984 52.0151 23.5703C51.6834 23.6414 51.3375 23.7089 50.9772 23.7728C50.9825 24.1 50.9954 24.4032 51.0159 24.6824C51.0457 24.961 51.0775 25.202 51.1111 25.4054C51.1414 25.5623 51.2216 25.6359 51.352 25.6264C51.4816 25.6075 51.6145 25.5696 51.7507 25.5129C51.7873 25.5008 51.8819 25.4517 52.0347 25.3657C52.1961 25.2696 52.3801 25.1625 52.5866 25.0444C52.8018 24.9163 53.026 24.7828 53.2591 24.644C53.4916 24.4959 53.7018 24.3635 53.8897 24.2468C53.8993 24.3771 53.8387 24.5079 53.708 24.6391C53.6383 24.7098 53.559 24.7764 53.47 24.8391C53.3903 24.9011 53.3063 24.9681 53.218 25.0401C53.1204 25.1128 53.0557 25.1877 53.024 25.2649C52.9922 25.3421 52.9142 25.4274 52.7901 25.5207C52.5597 25.6968 52.3097 25.8602 52.04 26.011C51.7703 26.1618 51.5258 26.2734 51.3065 26.3456C51.2334 26.3697 51.155 26.3848 51.0712 26.391C50.9967 26.3965 50.9233 26.4159 50.8509 26.4493C50.7426 26.504 50.6535 26.5012 50.5836 26.4408C50.5229 26.3798 50.4789 26.2894 50.4513 26.1698C50.3888 25.8281 50.3339 25.4625 50.2866 25.0729C50.2485 24.6827 50.2195 24.2871 50.1994 23.8861C49.9215 23.9253 49.6616 23.9537 49.4195 23.9715C49.1861 23.9793 48.994 23.9747 48.843 23.9577C48.702 23.9493 48.5696 23.931 48.4459 23.9026C48.3308 23.8643 48.2232 23.802 48.1233 23.7157C48.0395 23.7219 48.0089 23.6867 48.0313 23.6102C48.0624 23.5237 48.0852 23.4518 48.0997 23.3946C48.2945 23.3709 48.5777 23.3408 48.9494 23.3041C49.3297 23.2575 49.7379 23.2088 50.174 23.158C50.1545 22.3827 50.167 21.6612 50.2115 20.9935C50.2561 20.3257 50.3315 19.8242 50.4379 19.4888C50.4317 19.4051 50.4602 19.3468 50.5233 19.3141C50.5951 19.2714 50.6665 19.224 50.7375 19.172C50.7734 19.1507 50.8089 19.1247 50.8441 19.094C50.8879 19.0534 50.947 19.0303 51.0215 19.0248C51.1087 19.0652 51.1723 19.1027 51.2122 19.1372C51.2515 19.1624 51.2729 19.1982 51.2763 19.2448C51.2797 19.2913 51.2698 19.3482 51.2467 19.4154C51.2236 19.4826 51.1971 19.5688 51.1674 19.6739C51.1509 19.7032 51.1315 19.8216 51.1093 20.0291C51.0871 20.2366 51.0643 20.5003 51.0411 20.8202C51.0264 21.1301 51.0105 21.4869 50.9933 21.8906C50.9755 22.285 50.9673 22.6833 50.9688 23.0856C51.276 23.063 51.5695 23.0462 51.8495 23.035C52.1287 23.0144 52.3761 23.0056 52.5915 23.0085L53.2829 23.056ZM55.2685 23.3032C55.4593 22.971 55.6968 22.7009 55.981 22.4928C56.2645 22.2755 56.6028 22.1664 56.9958 22.1656C57.0523 22.1708 57.1145 22.1897 57.1824 22.2221C57.2496 22.2453 57.3122 22.2687 57.3701 22.2926C57.5152 22.3568 57.6537 22.4589 57.7857 22.5989C57.9169 22.7297 58.0359 22.8847 58.1427 23.064C58.2581 23.2334 58.3555 23.4134 58.435 23.6041C58.5145 23.7948 58.5744 23.9729 58.6147 24.1383C58.6408 24.2394 58.6643 24.3687 58.6853 24.5262C58.7062 24.6838 58.7214 24.8277 58.731 24.958C58.7124 24.9594 58.7034 24.9647 58.7041 24.974C58.7048 24.9833 58.6955 24.984 58.6762 24.9761C58.599 24.9443 58.5347 24.8976 58.4834 24.8358C58.4634 24.8186 58.4341 24.802 58.3955 24.7861C58.3562 24.761 58.3306 24.7301 58.3185 24.6935C58.2931 24.6018 58.2609 24.4825 58.2221 24.3356C58.1918 24.1788 58.1423 24.014 58.0734 23.8412C58.0046 23.6684 57.9221 23.5014 57.8261 23.34C57.7293 23.1693 57.6156 23.0232 57.485 22.9018C57.4351 22.8587 57.3908 22.8291 57.3522 22.8133C57.3222 22.7874 57.2829 22.7622 57.2343 22.7377C57.1851 22.7039 57.1135 22.6857 57.0198 22.6833C56.9253 22.6715 56.8462 22.6773 56.7824 22.7007C56.6276 22.7589 56.4665 22.8596 56.2993 23.0029C56.132 23.1462 55.9904 23.3204 55.8744 23.5254C55.7578 23.7212 55.6807 23.9468 55.6433 24.2022C55.606 24.4576 55.6491 24.7258 55.7726 25.0069C55.8067 25.0886 55.8305 25.157 55.8439 25.2122C55.8566 25.2581 55.86 25.3046 55.8541 25.3518C55.8575 25.3984 55.8473 25.4506 55.8235 25.5085C55.7997 25.5664 55.7679 25.6436 55.7282 25.7401C55.662 25.8573 55.5794 25.9429 55.4804 25.9969C55.3907 26.0503 55.3107 26.1077 55.2403 26.169C54.9137 25.4162 54.6475 24.659 54.4418 23.8974C54.2454 23.135 54.1033 22.4108 54.0155 21.7248C53.937 21.038 53.9141 20.408 53.9469 19.8347C53.9789 19.2521 54.0601 18.7642 54.1903 18.371C54.21 18.2572 54.2671 18.2062 54.3615 18.218C54.4088 18.2239 54.4474 18.2398 54.4773 18.2656C54.5073 18.2915 54.5473 18.326 54.5972 18.3691C54.6379 18.4129 54.6735 18.4524 54.7042 18.4876C54.7342 18.5135 54.7559 18.554 54.7693 18.6092C54.782 18.655 54.807 18.6766 54.8442 18.6739C54.8815 18.6711 54.8971 18.6934 54.8912 18.7406C54.8451 19.2587 54.8241 19.7375 54.8283 20.1771C54.8325 20.6166 54.8529 21.0222 54.8896 21.3938C54.9356 21.7648 54.9934 22.1068 55.0632 22.4199C55.133 22.7329 55.2014 23.0274 55.2685 23.3032ZM65.7954 22.6002C65.693 22.6077 65.5956 22.6196 65.5032 22.6357C65.4101 22.6425 65.3127 22.6544 65.211 22.6712C65.256 22.9019 65.2927 23.1472 65.3212 23.4071C65.359 23.6664 65.3784 23.9317 65.3797 24.203C65.3802 24.465 65.3621 24.7283 65.3254 24.9931C65.2973 25.2478 65.2446 25.4856 65.1672 25.7066C65.1513 25.7452 65.1487 25.7734 65.1594 25.7914C65.1801 25.8179 65.1825 25.8505 65.1666 25.8891C65.14 25.9098 65.1178 25.9254 65.0999 25.9361C65.0912 25.9461 65.0783 25.9611 65.0611 25.9811C64.9455 26.0644 64.8505 26.1088 64.776 26.1143C64.7574 26.1157 64.7421 26.0981 64.7301 26.0615C64.7273 26.0243 64.7339 25.9864 64.7498 25.9478C64.8228 25.54 64.8122 25.0775 64.7181 24.5604C64.6325 24.0332 64.4757 23.4271 64.2476 22.742C63.9311 22.7652 63.6076 22.7562 63.277 22.715C63.2677 22.7157 63.2398 22.7177 63.1932 22.7211C63.156 22.7239 63.1141 22.727 63.0676 22.7304C63.0203 22.7245 62.9778 22.7182 62.9399 22.7117C62.9013 22.6958 62.8809 22.6739 62.8789 22.646C62.8841 22.5894 62.8674 22.5532 62.8288 22.5373C62.7988 22.5115 62.7831 22.4892 62.7818 22.4706C62.7677 22.4061 62.7696 22.3686 62.7875 22.3579C62.8141 22.3372 62.8503 22.3205 62.8962 22.3078C63.0517 22.2589 63.2215 22.2137 63.4056 22.1721C63.599 22.1298 63.8021 22.0915 64.0148 22.0572C63.9921 22.0027 63.98 21.9661 63.9787 21.9475C63.843 21.6299 63.7333 21.2824 63.6494 20.9048C63.5655 20.5273 63.5142 20.1474 63.4955 19.7651C63.4861 19.3821 63.5106 19.0153 63.5691 18.6647C63.6362 18.3042 63.7486 17.9871 63.9063 17.7135C63.9646 17.6156 64.0436 17.5443 64.1433 17.4995C64.1885 17.4775 64.2336 17.4554 64.2788 17.4334C64.3333 17.4107 64.3841 17.4023 64.4314 17.4082C64.6203 17.4317 64.7926 17.4846 64.9484 17.5667C65.1035 17.6396 65.2463 17.7367 65.3769 17.8581C65.5161 17.9696 65.6473 18.1003 65.7707 18.2503C65.8933 18.3911 66.0116 18.5368 66.1256 18.6875C66.2169 18.7837 66.2227 18.8629 66.1431 18.9249C66.0634 18.9869 65.9927 19.0435 65.9309 19.0948C65.8606 19.1562 65.7789 19.1902 65.6858 19.1971C65.6193 19.1833 65.551 19.1462 65.4811 19.0858C65.4111 19.0254 65.3279 18.9754 65.2314 18.9357C65.1814 18.8925 65.1168 18.8411 65.0376 18.7814C64.9577 18.7125 64.8737 18.6531 64.7859 18.6034C64.698 18.5537 64.6155 18.513 64.5383 18.4812C64.4611 18.4495 64.3999 18.4446 64.3547 18.4666C64.3281 18.4873 64.2904 18.5462 64.2413 18.6434C64.2016 18.7399 64.1706 18.8264 64.1481 18.9029C64.098 19.1125 64.1027 19.304 64.1622 19.4774C64.3067 19.916 64.4506 20.3453 64.5937 20.7653C64.7362 21.176 64.8756 21.5447 65.0119 21.8716C65.0139 21.8996 65.0203 21.9225 65.031 21.9404C65.394 21.9138 65.7498 21.9157 66.0983 21.9463C66.4554 21.9668 66.7824 22.0223 67.0791 22.1129C67.127 22.128 67.0889 22.1823 66.9647 22.2757C66.8937 22.3277 66.8256 22.3561 66.7604 22.3609C66.7039 22.3557 66.6394 22.3698 66.567 22.4031C66.4401 22.4593 66.3122 22.5014 66.1832 22.5296C66.0543 22.5578 65.925 22.5813 65.7954 22.6002ZM72.0076 20.2488C72.0138 20.3326 72.0356 20.4386 72.0731 20.5669C72.1099 20.6858 72.1078 20.7842 72.0667 20.8621C72.0495 20.8821 72.0429 20.92 72.047 20.9759C72.0504 21.0224 72.0388 21.056 72.0123 21.0767L71.8226 20.9783C71.6682 20.9148 71.4982 20.8945 71.3127 20.9175C71.1366 20.9398 70.9581 20.995 70.7774 21.0832C70.6512 21.1486 70.5267 21.2373 70.4039 21.3492C70.2898 21.4512 70.1813 21.5668 70.0784 21.696C69.9756 21.8252 69.8825 21.9584 69.799 22.0956C69.7155 22.2327 69.6456 22.3642 69.5893 22.49C69.4602 22.7709 69.4097 23.1021 69.4377 23.4838C69.475 23.8647 69.6509 24.3478 69.9653 24.933C69.9701 24.9982 69.9293 25.0807 69.8431 25.1806C69.8258 25.2006 69.8046 25.2302 69.7794 25.2695C69.7542 25.3088 69.733 25.3384 69.7158 25.3584C69.6461 25.4291 69.6036 25.4883 69.5884 25.5362C69.5826 25.5835 69.557 25.6181 69.5118 25.6401C69.4394 25.6735 69.3648 25.6135 69.2881 25.46C69.1093 25.1924 68.9308 24.8639 68.7524 24.4746C68.5827 24.0753 68.417 23.6664 68.2552 23.2477C68.1028 22.8285 67.961 22.4271 67.8299 22.0437C67.7074 21.6503 67.6083 21.3206 67.5326 21.0548C67.4992 20.9824 67.4895 20.9129 67.5033 20.8464C67.5164 20.7705 67.5399 20.708 67.5737 20.6587C67.5989 20.6194 67.6308 20.6077 67.6694 20.6236C67.7173 20.6388 67.7552 20.6454 67.7832 20.6433C67.9042 20.6344 67.9804 20.6522 68.0117 20.6967C68.043 20.7412 68.094 20.7983 68.1647 20.868C68.3059 21.0073 68.423 21.2 68.5159 21.4458C68.6088 21.6917 68.7238 21.9827 68.8608 22.3189C68.9913 22.0566 69.1643 21.8006 69.3799 21.5508C69.6049 21.3003 69.8501 21.0717 70.1157 20.8651C70.3806 20.6491 70.6575 20.4696 70.9465 20.3268C71.2355 20.1839 71.5185 20.0882 71.7957 20.0398C71.8509 20.0264 71.8988 20.0416 71.9395 20.0854C71.9887 20.1192 72.0115 20.1737 72.0076 20.2488ZM74.4358 19.9862C74.5158 20.0552 74.5481 20.1137 74.5329 20.1616C74.527 20.2088 74.5005 20.2295 74.4533 20.2236C74.3323 20.2325 74.1983 20.2564 74.0514 20.2952C73.9132 20.3241 73.761 20.354 73.5948 20.3849C73.4372 20.4058 73.2697 20.4181 73.0921 20.4218C72.9146 20.4255 72.7353 20.4059 72.5544 20.3631C72.4744 20.2941 72.4697 20.2289 72.54 20.1676C72.619 20.0963 72.6773 19.9984 72.715 19.874C72.7368 19.7882 72.7699 19.7296 72.8144 19.6982C72.8675 19.6569 72.9216 19.6295 72.9768 19.6161C73.0792 19.6086 73.2066 19.6226 73.3589 19.6582C73.5199 19.6838 73.6519 19.6975 73.755 19.6993C73.9146 19.7063 74.047 19.7247 74.1521 19.7544C74.2565 19.7748 74.3511 19.8521 74.4358 19.9862ZM74.2821 21.9066C74.3537 22.1166 74.4099 22.309 74.4508 22.4838C74.5011 22.658 74.537 22.8285 74.5586 22.9953C74.5888 23.1522 74.6101 23.3144 74.6224 23.482C74.644 23.6488 74.662 23.83 74.6764 24.0255C74.6791 24.0627 74.6589 24.1063 74.6158 24.1562C74.5813 24.1962 74.5564 24.2402 74.5412 24.2881C74.5102 24.3746 74.4813 24.4282 74.4548 24.4488C74.4375 24.4688 74.402 24.4948 74.3482 24.5268C74.222 24.5923 74.1115 24.6799 74.0166 24.7898C73.8826 24.6219 73.7838 24.4232 73.7201 24.194C73.6658 23.964 73.6201 23.724 73.583 23.4741C73.5553 23.2234 73.5228 22.9731 73.4858 22.7232C73.4573 22.4632 73.4063 22.2143 73.3327 21.9764C73.2952 21.8481 73.298 21.759 73.3411 21.7091C73.3842 21.6591 73.433 21.6228 73.4875 21.6C73.5513 21.5766 73.6221 21.5855 73.7 21.6265C73.7872 21.6669 73.8697 21.7077 73.9476 21.7487C74.0155 21.7812 74.0777 21.8 74.1343 21.8052C74.1994 21.8004 74.2487 21.8342 74.2821 21.9066ZM78.8128 19.9595C78.8827 20.0199 78.9487 20.0899 79.0107 20.1696C79.072 20.24 79.1243 20.3157 79.1677 20.3967C79.2552 20.5681 79.3054 20.7422 79.3184 20.9191C79.34 21.0859 79.2899 21.2955 79.1681 21.5478C79.029 21.82 78.8402 22.0538 78.6019 22.2491C78.3729 22.4438 78.1158 22.5749 77.8307 22.6427C77.6286 22.695 77.4238 22.71 77.2163 22.6878C77.0081 22.6563 76.8058 22.5776 76.6094 22.4516C76.557 22.5023 76.5155 22.5755 76.4852 22.6713C76.4634 22.7571 76.4599 22.8369 76.4747 22.9107C76.5029 23.0397 76.56 23.1805 76.6461 23.3333C76.7408 23.4761 76.8367 23.572 76.9339 23.621C77.097 23.6745 77.316 23.6631 77.5912 23.5868C77.8756 23.5097 78.172 23.4037 78.4803 23.2688C78.7972 23.1238 79.1041 22.9703 79.401 22.8081C79.7065 22.6359 79.9673 22.4904 80.1831 22.3716C80.1872 22.4275 80.176 22.4657 80.1495 22.4864C80.1322 22.5064 80.1067 22.541 80.0729 22.5903C80.0297 22.6402 79.9826 22.6999 79.9316 22.7691C79.8805 22.8384 79.8195 22.899 79.7484 22.951C79.6594 23.0137 79.5951 23.0933 79.5554 23.1898C79.515 23.277 79.4324 23.3626 79.3075 23.4467C79.1375 23.5527 78.9632 23.6638 78.7845 23.7799C78.6145 23.8859 78.4442 23.9874 78.2735 24.0841C78.1021 24.1716 77.925 24.2454 77.7423 24.3056C77.5681 24.3558 77.392 24.3781 77.2137 24.3725C77.0914 24.3628 76.9866 24.3377 76.8994 24.2973C76.8215 24.2563 76.7233 24.1933 76.6047 24.1084C76.5455 24.066 76.4769 24.0242 76.399 23.9832C76.3211 23.9421 76.2619 23.8996 76.2212 23.8558C76.0459 23.6348 75.9207 23.3959 75.8457 23.1394C75.77 22.8736 75.7366 22.6093 75.7454 22.3466C75.7628 22.074 75.8135 21.8082 75.8974 21.5494C75.9806 21.2812 76.0982 21.0339 76.25 20.8075C76.3342 20.6797 76.437 20.5505 76.5584 20.4199C76.6885 20.2793 76.8292 20.1567 76.9806 20.052C77.1406 19.9373 77.307 19.8455 77.4798 19.7767C77.6618 19.7072 77.8463 19.6702 78.0331 19.6658C78.1083 19.6697 78.1752 19.6882 78.2338 19.7213C78.301 19.7444 78.3732 19.7719 78.4504 19.8037C78.4983 19.8189 78.5562 19.8427 78.6241 19.8751C78.7006 19.8976 78.7635 19.9257 78.8128 19.9595ZM78.4684 20.8131C78.4436 20.7306 78.3869 20.6599 78.2984 20.6009C78.2098 20.5419 78.113 20.4976 78.0078 20.4679C77.902 20.4288 77.7976 20.4084 77.6945 20.4066C77.5914 20.4049 77.5173 20.415 77.4721 20.437C77.3997 20.4704 77.3151 20.5281 77.2181 20.6101C77.1298 20.6821 77.0426 20.768 76.9563 20.868C76.8794 20.9672 76.8031 21.0757 76.7276 21.1936C76.6606 21.3015 76.6119 21.4033 76.5815 21.4991C76.565 21.5284 76.5498 21.5763 76.5359 21.6428C76.5307 21.6994 76.5385 21.7409 76.5591 21.7675C76.6811 21.8989 76.8538 21.9564 77.0772 21.94C77.2913 21.9243 77.5156 21.8563 77.75 21.7361C77.9938 21.6153 78.1628 21.4953 78.257 21.376C78.265 21.3567 78.2812 21.3228 78.3057 21.2742C78.3395 21.2249 78.3683 21.1713 78.3922 21.1134C78.416 21.0555 78.4351 20.998 78.4497 20.9408C78.4735 20.8829 78.4797 20.8403 78.4684 20.8131ZM81.4476 22.1805C81.5942 22.0106 81.7402 21.8314 81.8854 21.643C82.0393 21.4445 82.1985 21.255 82.3631 21.0744C82.5276 20.8939 82.6982 20.7316 82.8748 20.5877C83.0507 20.4344 83.238 20.3083 83.4366 20.2095C83.4818 20.1875 83.5233 20.1797 83.5612 20.1863C83.6084 20.1922 83.6546 20.1841 83.6998 20.1621C83.7743 20.1566 83.8394 20.1518 83.8953 20.1477C83.9511 20.1436 84.0037 20.1585 84.053 20.1923C84.1894 20.2665 84.3007 20.38 84.3868 20.5327C84.4815 20.6755 84.5636 20.8379 84.6332 21.02C84.6779 21.1197 84.7037 21.216 84.7106 21.3091C84.7267 21.4015 84.7625 21.5065 84.8179 21.6241C84.8868 21.7969 84.9606 21.9739 85.0394 22.1553C85.1269 22.3267 85.1675 22.4968 85.1611 22.6658C85.1553 22.713 85.1444 22.7559 85.1285 22.7945C85.1119 22.8238 85.0914 22.8627 85.0669 22.9113C85.051 22.9499 85.0218 22.9989 84.9794 23.0581C84.937 23.1174 84.8935 23.1627 84.849 23.194C84.8052 23.2347 84.775 23.2697 84.7585 23.299C84.7505 23.3183 84.7103 23.3446 84.6379 23.378C84.5039 23.21 84.3968 23.026 84.3166 22.826C84.2364 22.6261 84.1648 22.4161 84.1019 22.1961C84.0389 21.9761 83.9803 21.7511 83.926 21.5212C83.8717 21.2912 83.8077 21.0572 83.7341 20.8193C83.7107 20.7555 83.6474 20.7228 83.5443 20.721C83.4506 20.7185 83.3413 20.7593 83.2164 20.8433C83.1002 20.9174 82.9777 21.034 82.8491 21.1932C82.7204 21.3524 82.6087 21.5524 82.5141 21.7933C82.452 21.9663 82.3951 22.1483 82.3437 22.3393C82.2915 22.5209 82.2304 22.7079 82.1603 22.9002C82.0988 23.0825 82.0187 23.2662 81.92 23.4513C81.8299 23.6264 81.7155 23.7892 81.5768 23.9397C81.5337 23.9897 81.5015 23.9967 81.4801 23.9609C81.4588 23.925 81.4098 23.8959 81.3333 23.8734C81.2761 23.8589 81.2422 23.8427 81.2315 23.8247C81.2301 23.8061 81.2121 23.7513 81.1773 23.6603C81.1071 23.4689 81.0302 23.2499 80.9466 23.0034C80.8722 22.7562 80.7876 22.4957 80.6926 22.2219C80.607 21.9474 80.5166 21.6733 80.4217 21.3995C80.326 21.1165 80.2317 20.852 80.1388 20.6061L80.0365 20.361C80.0524 20.3224 80.0826 20.2874 80.1271 20.256C80.1809 20.224 80.235 20.1966 80.2895 20.1739C80.344 20.1512 80.4049 20.1514 80.4721 20.1746C80.5393 20.1977 80.5915 20.2079 80.6287 20.2052C80.7311 20.1976 80.8243 20.2563 80.9084 20.3811C81.0017 20.5053 81.0838 20.6677 81.1547 20.8684C81.2249 21.0598 81.2829 21.2755 81.3286 21.5154C81.3829 21.7454 81.4226 21.9671 81.4476 22.1805ZM88.4003 15.8582C88.4441 16.4539 88.5409 17.0083 88.6909 17.5214C88.8402 18.0251 88.9719 18.5442 89.0861 19.0786C89.2009 19.6223 89.2921 20.1631 89.3596 20.7009C89.4265 21.2294 89.5 21.72 89.58 22.1727C89.5562 22.2306 89.547 22.2968 89.5525 22.3713C89.5673 22.4451 89.5531 22.5069 89.51 22.5569C89.3799 22.6975 89.2309 22.8347 89.063 22.9687C88.895 23.1027 88.7077 23.2288 88.5012 23.3469C88.4294 23.3896 88.3563 23.4137 88.2819 23.4192C88.2067 23.4153 88.1326 23.4255 88.0595 23.4495C87.9771 23.4743 87.8904 23.5041 87.7993 23.5388C87.7176 23.5729 87.6295 23.5841 87.5351 23.5723C87.4306 23.5519 87.3065 23.5189 87.1628 23.4733C87.0184 23.4184 86.8733 23.3542 86.7275 23.2807C86.5818 23.2071 86.4446 23.1236 86.3161 23.0301C86.1969 22.9359 86.1049 22.8304 86.0401 22.7135C85.8988 22.1904 85.8822 21.7097 85.9904 21.2713C86.1078 20.8321 86.2982 20.4298 86.5615 20.0642C86.5953 20.0149 86.6394 19.9789 86.6939 19.9562C86.7477 19.9242 86.7965 19.8878 86.8403 19.8472C86.8841 19.8065 86.9333 19.7748 86.9878 19.7521C87.0416 19.7201 87.106 19.706 87.1812 19.7098C87.3687 19.7148 87.5769 19.7463 87.8058 19.8043C88.034 19.8531 88.2092 19.8823 88.3316 19.8921L88.3162 19.6826C88.2985 19.4406 88.2621 19.2 88.2071 18.9607C88.1607 18.7114 88.1143 18.4621 88.0679 18.2129C88.0215 17.9636 87.9794 17.7093 87.9417 17.4501C87.9126 17.1808 87.9063 16.9052 87.9231 16.6232C87.9269 16.548 87.9401 16.4722 87.9625 16.3957C87.985 16.3192 88.0028 16.243 88.0159 16.1672C88.0311 16.1193 88.0553 16.066 88.0884 16.0074C88.1209 15.9395 88.1597 15.8946 88.2048 15.8725C88.25 15.8505 88.2759 15.8205 88.2825 15.7826C88.2883 15.7354 88.3103 15.7151 88.3482 15.7216C88.3861 15.7282 88.4011 15.7411 88.3931 15.7604C88.3945 15.7791 88.3969 15.8116 88.4003 15.8582ZM88.7944 22.3708C88.7962 22.2677 88.7856 22.1235 88.7627 21.938C88.7483 21.7425 88.7057 21.5444 88.6348 21.3437C88.5639 21.1431 88.4564 20.9544 88.3125 20.7778C88.1778 20.6006 87.9953 20.4736 87.7651 20.3969C87.6634 20.4137 87.5437 20.4412 87.4062 20.4794C87.2772 20.5076 87.1496 20.5544 87.0234 20.6198C86.8972 20.6853 86.782 20.7733 86.6778 20.8839C86.573 20.9852 86.4934 21.1127 86.4392 21.2664C86.3957 21.438 86.4117 21.6568 86.4874 21.9226C86.5624 22.1791 86.7298 22.4195 86.9896 22.6438C87.1354 22.7173 87.2881 22.7575 87.4477 22.7645C87.6066 22.7622 87.7645 22.7459 87.9214 22.7157C88.0875 22.6848 88.2431 22.6359 88.3879 22.5691C88.542 22.5017 88.6775 22.4355 88.7944 22.3708ZM93.8014 19.378C93.7651 19.521 93.7357 19.6308 93.7133 19.7073C93.6908 19.7838 93.6496 19.7962 93.5896 19.7445C93.4498 19.6237 93.2813 19.4957 93.0842 19.3605C92.8871 19.2252 92.6522 19.1489 92.3795 19.1315C92.2013 19.1259 92.0122 19.1631 91.8122 19.2433C91.6208 19.3136 91.4811 19.4502 91.3931 19.6531C91.3123 19.8275 91.313 20.0287 91.3953 20.2566C91.4689 20.4945 91.6029 20.6625 91.7973 20.7605C92.0002 20.8485 92.2205 20.9166 92.458 20.9647C92.7041 21.0027 92.9499 21.0362 93.1953 21.0649C93.4501 21.093 93.6703 21.161 93.856 21.2691C93.9139 21.2929 93.9592 21.3364 93.992 21.3995C94.0333 21.4526 94.0743 21.501 94.1149 21.5448C94.1656 21.5973 94.2109 21.6407 94.2509 21.6752C94.3001 21.709 94.3461 21.7618 94.3888 21.8336C94.4208 21.8874 94.4586 21.9548 94.5019 22.0358C94.5446 22.1075 94.5601 22.1906 94.5483 22.2851C94.5293 22.4081 94.4225 22.547 94.228 22.7017C93.8024 23.023 93.3491 23.2856 92.868 23.4894C92.3877 23.7025 91.8688 23.7734 91.3114 23.702C91.2449 23.6882 91.1656 23.6285 91.0737 23.5229C90.9824 23.4267 90.9074 23.362 90.8489 23.3289C90.6938 23.2561 90.5835 23.1565 90.5181 23.0303C90.4258 22.7938 90.3691 22.5312 90.3479 22.2427C90.3411 22.1496 90.352 22.1067 90.3806 22.1139C90.4178 22.1112 90.4504 22.1088 90.4783 22.1067C90.5342 22.1026 90.5974 22.1354 90.668 22.2051C90.748 22.2741 90.8289 22.3571 90.9109 22.454C91.0015 22.5409 91.0825 22.6239 91.1538 22.7029C91.2337 22.7719 91.297 22.8047 91.3435 22.8012C91.5072 22.8641 91.7011 22.8919 91.9252 22.8848C92.1493 22.8777 92.3713 22.8427 92.5913 22.7798C92.8199 22.7068 93.0278 22.6073 93.2151 22.4813C93.411 22.3452 93.563 22.1843 93.671 21.9986C93.6676 21.952 93.6076 21.9003 93.4911 21.8433C93.384 21.7857 93.2439 21.7258 93.0708 21.6636C92.8971 21.5922 92.7048 21.5221 92.4939 21.4533C92.2923 21.3839 92.0949 21.3095 91.9019 21.2301C91.7182 21.15 91.5528 21.0639 91.4057 20.9718C91.2678 20.8789 91.1719 20.7831 91.1178 20.6841C91.0844 20.6117 91.0464 20.5396 91.0037 20.4679C90.9603 20.3868 90.9326 20.328 90.9205 20.2915C90.859 20.0901 90.8353 19.8953 90.8495 19.7071C90.8631 19.5096 90.9063 19.3333 90.9791 19.1782C91.052 19.0231 91.1548 18.8939 91.2876 18.7906C91.4197 18.6779 91.5731 18.6011 91.7479 18.5602C92.0245 18.5025 92.3223 18.4806 92.6415 18.4946C92.9694 18.4986 93.2658 18.5844 93.5308 18.7521C93.61 18.8118 93.6657 18.8686 93.6977 18.9224C93.739 18.9755 93.7718 19.0386 93.7958 19.1117C93.8086 19.1575 93.8213 19.2034 93.834 19.2493C93.8461 19.2858 93.8352 19.3287 93.8014 19.378Z" fill="black"/>
</svg>
