<svg width="117" height="30" viewBox="0 0 117 30" fill="none" xmlns="http://www.w3.org/2000/svg">
<mask id="mask0_741_3143" style="mask-type:alpha" maskUnits="userSpaceOnUse" x="8" y="5" width="101" height="12">
<path d="M15.154 6.2H18.458V16H15.154V6.2ZM12.102 16H8.798V6.2H12.102V16ZM15.378 12.388H11.878V9.672H15.378V12.388ZM18.986 16L23.27 6.2H26.518L30.802 16H27.386L24.222 7.768H25.51L22.346 16H18.986ZM21.534 14.292L22.374 11.912H26.882L27.722 14.292H21.534ZM31.3293 16V6.2H36.0473C36.9619 6.2 37.7506 6.34933 38.4133 6.648C39.0853 6.94667 39.6033 7.376 39.9673 7.936C40.3313 8.48667 40.5133 9.14 40.5133 9.896C40.5133 10.652 40.3313 11.3053 39.9673 11.856C39.6033 12.4067 39.0853 12.836 38.4133 13.144C37.7506 13.4427 36.9619 13.592 36.0473 13.592H33.1633L34.6333 12.178V16H31.3293ZM34.6333 12.542L33.1633 11.044H35.8373C36.2946 11.044 36.6306 10.9413 36.8453 10.736C37.0693 10.5307 37.1813 10.2507 37.1813 9.896C37.1813 9.54133 37.0693 9.26133 36.8453 9.056C36.6306 8.85067 36.2946 8.748 35.8373 8.748H33.1633L34.6333 7.25V12.542ZM41.5968 16V6.2H46.3148C47.2295 6.2 48.0182 6.34933 48.6808 6.648C49.3528 6.94667 49.8708 7.376 50.2348 7.936C50.5988 8.48667 50.7808 9.14 50.7808 9.896C50.7808 10.652 50.5988 11.3053 50.2348 11.856C49.8708 12.4067 49.3528 12.836 48.6808 13.144C48.0182 13.4427 47.2295 13.592 46.3148 13.592H43.4308L44.9008 12.178V16H41.5968ZM44.9008 12.542L43.4308 11.044H46.1048C46.5622 11.044 46.8982 10.9413 47.1128 10.736C47.3368 10.5307 47.4488 10.2507 47.4488 9.896C47.4488 9.54133 47.3368 9.26133 47.1128 9.056C46.8982 8.85067 46.5622 8.748 46.1048 8.748H43.4308L44.9008 7.25V12.542ZM54.3844 16V11.702L55.1404 13.676L50.6884 6.2H54.1744L57.1844 11.31H55.1544L58.1924 6.2H61.3844L56.9604 13.676L57.6884 11.702V16H54.3844Z" fill="#FF8201"/>
<path d="M71.2231 8.202C71.8111 8.202 72.3431 8.32333 72.8191 8.566C73.2951 8.79933 73.6685 9.168 73.9391 9.672C74.2191 10.176 74.3591 10.8293 74.3591 11.632V16H71.1951V12.178C71.1951 11.702 71.1111 11.366 70.9431 11.17C70.7751 10.9647 70.5465 10.862 70.2571 10.862C70.0425 10.862 69.8418 10.9133 69.6551 11.016C69.4778 11.1093 69.3331 11.268 69.2211 11.492C69.1185 11.716 69.0671 12.0193 69.0671 12.402V16H65.9031V5.612H69.0671V10.582L68.3111 9.938C68.6098 9.35933 69.0111 8.92533 69.5151 8.636C70.0285 8.34667 70.5978 8.202 71.2231 8.202ZM79.9159 16.14C79.0479 16.14 78.2779 15.972 77.6059 15.636C76.9433 15.2907 76.4206 14.8193 76.0379 14.222C75.6553 13.6247 75.4639 12.9387 75.4639 12.164C75.4639 11.3893 75.6553 10.7033 76.0379 10.106C76.4206 9.50867 76.9433 9.042 77.6059 8.706C78.2779 8.37 79.0479 8.202 79.9159 8.202C80.7839 8.202 81.5539 8.37 82.2259 8.706C82.8979 9.042 83.4206 9.50867 83.7939 10.106C84.1766 10.7033 84.3679 11.3893 84.3679 12.164C84.3679 12.9387 84.1766 13.6247 83.7939 14.222C83.4206 14.8193 82.8979 15.2907 82.2259 15.636C81.5539 15.972 80.7839 16.14 79.9159 16.14ZM79.9159 13.676C80.1493 13.676 80.3593 13.62 80.5459 13.508C80.7326 13.396 80.8819 13.228 80.9939 13.004C81.1059 12.7707 81.1619 12.4907 81.1619 12.164C81.1619 11.828 81.1059 11.5527 80.9939 11.338C80.8819 11.114 80.7326 10.946 80.5459 10.834C80.3593 10.722 80.1493 10.666 79.9159 10.666C79.6826 10.666 79.4726 10.722 79.2859 10.834C79.0993 10.946 78.9499 11.114 78.8379 11.338C78.7259 11.5527 78.6699 11.828 78.6699 12.164C78.6699 12.4907 78.7259 12.7707 78.8379 13.004C78.9499 13.228 79.0993 13.396 79.2859 13.508C79.4726 13.62 79.6826 13.676 79.9159 13.676ZM88.5502 16.14C87.9435 16.14 87.3929 16.0187 86.8982 15.776C86.4129 15.524 86.0302 15.1367 85.7502 14.614C85.4702 14.082 85.3302 13.4007 85.3302 12.57V8.342H88.4942V12.024C88.4942 12.5653 88.5829 12.9433 88.7602 13.158C88.9375 13.3727 89.1802 13.48 89.4882 13.48C89.6749 13.48 89.8475 13.4333 90.0062 13.34C90.1742 13.2373 90.3095 13.074 90.4122 12.85C90.5149 12.6167 90.5662 12.3133 90.5662 11.94V8.342H93.7302V16H90.7202V13.788L91.3222 14.39C91.0515 14.9873 90.6642 15.4307 90.1602 15.72C89.6655 16 89.1289 16.14 88.5502 16.14ZM95.1336 16V8.342H98.1436V10.652L97.6536 9.994C97.8869 9.39667 98.2603 8.94867 98.7736 8.65C99.2869 8.35133 99.9029 8.202 100.622 8.202V11.002C100.482 10.9833 100.356 10.9693 100.244 10.96C100.141 10.9507 100.034 10.946 99.9216 10.946C99.4456 10.946 99.0536 11.072 98.7456 11.324C98.4469 11.5667 98.2976 11.9913 98.2976 12.598V16H95.1336ZM104.514 16.14C103.861 16.14 103.217 16.07 102.582 15.93C101.948 15.79 101.434 15.608 101.042 15.384L101.91 13.298C102.274 13.5127 102.694 13.6807 103.17 13.802C103.656 13.9233 104.127 13.984 104.584 13.984C104.967 13.984 105.224 13.9513 105.354 13.886C105.494 13.8207 105.564 13.732 105.564 13.62C105.564 13.508 105.485 13.4287 105.326 13.382C105.168 13.326 104.958 13.284 104.696 13.256C104.435 13.228 104.146 13.1953 103.828 13.158C103.52 13.1113 103.208 13.046 102.89 12.962C102.573 12.878 102.284 12.752 102.022 12.584C101.761 12.416 101.551 12.192 101.392 11.912C101.234 11.6227 101.154 11.2587 101.154 10.82C101.154 10.3347 101.299 9.896 101.588 9.504C101.887 9.112 102.326 8.79933 102.904 8.566C103.492 8.32333 104.216 8.202 105.074 8.202C105.634 8.202 106.194 8.25333 106.754 8.356C107.314 8.45867 107.795 8.61733 108.196 8.832L107.328 10.918C106.936 10.7033 106.549 10.5587 106.166 10.484C105.793 10.4 105.443 10.358 105.116 10.358C104.715 10.358 104.44 10.3953 104.29 10.47C104.15 10.5447 104.08 10.6287 104.08 10.722C104.08 10.834 104.16 10.918 104.318 10.974C104.477 11.03 104.687 11.072 104.948 11.1C105.21 11.128 105.494 11.1653 105.802 11.212C106.12 11.2493 106.432 11.3147 106.74 11.408C107.058 11.492 107.347 11.618 107.608 11.786C107.87 11.954 108.08 12.1827 108.238 12.472C108.397 12.752 108.476 13.1113 108.476 13.55C108.476 14.0073 108.332 14.4367 108.042 14.838C107.753 15.23 107.314 15.5473 106.726 15.79C106.138 16.0233 105.401 16.14 104.514 16.14Z" fill="#FFB400"/>
</mask>
<g mask="url(#mask0_741_3143)">
<rect x="1" y="1" width="116" height="20" fill="url(#paint0_linear_741_3143)"/>
</g>
<mask id="mask1_741_3143" style="mask-type:alpha" maskUnits="userSpaceOnUse" x="0" y="0" width="117" height="22">
<path d="M91 21H106C111.523 21 116 16.5228 116 11V11C116 5.47715 111.523 1 106 1H11C5.47715 1 1 5.47715 1 11V11C1 16.5228 5.47715 21 11 21H19" stroke="#FF8201"/>
</mask>
<g mask="url(#mask1_741_3143)">
<rect width="117" height="22" fill="url(#paint1_linear_741_3143)"/>
</g>
<path d="M29.6353 18.7553C29.5322 19.2442 29.4447 19.7265 29.3727 20.2024C29.3007 20.6783 29.2176 21.1497 29.1236 21.6165C29.0401 22.0825 28.9404 22.5444 28.8243 23.0021C28.718 23.4484 28.5787 23.8811 28.4062 24.3002C28.4109 24.3641 28.3882 24.4192 28.3382 24.4657C28.298 24.5007 28.2422 24.5422 28.1708 24.5903C28.0897 24.6497 28.0039 24.7202 27.9136 24.8017C27.834 24.8824 27.7593 24.9574 27.6895 25.0267C27.6205 25.1066 27.5508 25.1759 27.4802 25.2346C27.4104 25.3039 27.3436 25.3409 27.2798 25.3456C27.216 25.3502 27.1593 25.3063 27.1097 25.2137C27.005 24.954 26.9045 24.6779 26.8082 24.3855C26.7225 24.0924 26.6364 23.7939 26.5499 23.49C26.4634 23.1862 26.3773 22.8877 26.2916 22.5946C26.2059 22.3014 26.121 22.0188 26.0368 21.7469L24.1605 24.596C24.1234 24.6736 24.0863 24.7512 24.0493 24.8288C24.0114 24.8958 23.9613 24.9422 23.8991 24.9682C23.8786 24.9804 23.8581 24.9926 23.8376 25.0048C23.8179 25.0276 23.7924 25.0456 23.7613 25.0585C23.7408 25.0707 23.7085 25.0678 23.6644 25.0496C23.6309 25.0307 23.5906 24.9909 23.5433 24.9302C23.3756 24.6858 23.217 24.4194 23.0675 24.1309C22.9172 23.8317 22.7767 23.5212 22.6461 23.1992C22.5261 22.8765 22.4115 22.5533 22.3022 22.2298C22.2035 21.9055 22.1105 21.5861 22.0232 21.2717C21.9957 21.1881 21.9849 21.1141 21.9909 21.0495C21.996 20.9742 22.0061 20.8932 22.0212 20.8066C22.0338 20.688 22.0682 20.5732 22.1242 20.4621C22.1711 20.3731 22.2082 20.2955 22.2354 20.2293C22.2627 20.1632 22.3078 20.1224 22.3709 20.1071C22.4453 20.1016 22.4765 20.0886 22.4643 20.0681C22.4627 20.0469 22.4893 20.0449 22.544 20.0623C22.5988 20.0796 22.6449 20.1244 22.6822 20.1965C22.7196 20.2686 22.7505 20.3252 22.7749 20.3662C22.8362 20.6184 22.9052 20.9021 22.9818 21.2173C23.0683 21.5211 23.1552 21.8303 23.2425 22.1447C23.3297 22.4592 23.4162 22.763 23.5019 23.0562C23.5975 23.3379 23.685 23.5828 23.7645 23.7909C23.8721 23.6546 24.016 23.4302 24.1963 23.1175C24.3765 22.8047 24.5769 22.4745 24.7973 22.1268C25.017 21.7684 25.2489 21.4305 25.4929 21.1131C25.7362 20.785 25.9747 20.5376 26.2085 20.3707L26.2284 20.6419C26.2875 20.5734 26.3433 20.5319 26.3957 20.5174C26.4474 20.4922 26.4998 20.4776 26.5529 20.4737C26.6061 20.4698 26.6544 20.4716 26.6977 20.4791C26.7411 20.4866 26.7655 20.5276 26.7709 20.6021C26.8291 20.8117 26.895 21.0529 26.9685 21.3256C27.0412 21.5876 27.1094 21.8607 27.173 22.1448C27.2473 22.4281 27.3159 22.7065 27.3788 22.98C27.4408 23.2428 27.5006 23.4737 27.558 23.6727C27.6791 23.4285 27.7876 23.1585 27.8835 22.8627C27.9893 22.5554 28.0898 22.2486 28.1849 21.9421C28.2899 21.6242 28.3953 21.3117 28.5011 21.0044C28.6061 20.6866 28.7236 20.3945 28.8538 20.1282C28.9189 19.9951 29 19.8608 29.097 19.7253C29.1932 19.5792 29.2792 19.4392 29.3549 19.3053C29.4117 19.2049 29.4529 19.111 29.4786 19.0235C29.5149 18.9353 29.5671 18.8459 29.6353 18.7553ZM32.394 19.0661C32.4854 19.1449 32.5224 19.2117 32.505 19.2665C32.4983 19.3204 32.4679 19.3441 32.414 19.3373C32.2757 19.3475 32.1226 19.3748 31.9547 19.4192C31.7967 19.4522 31.6227 19.4863 31.4328 19.5217C31.2528 19.5456 31.0613 19.5597 30.8584 19.5639C30.6555 19.5681 30.4506 19.5457 30.2438 19.4967C30.1524 19.4179 30.147 19.3434 30.2274 19.2733C30.3177 19.1918 30.3843 19.08 30.4273 18.9378C30.4522 18.8397 30.4901 18.7727 30.5409 18.7369C30.6016 18.6897 30.6635 18.6584 30.7266 18.6431C30.8436 18.6345 30.9891 18.6505 31.1633 18.6912C31.3472 18.7205 31.4981 18.7361 31.6159 18.7382C31.7983 18.7462 31.9496 18.7671 32.0697 18.8011C32.1891 18.8244 32.2972 18.9127 32.394 19.0661ZM32.2183 21.2608C32.3001 21.5008 32.3644 21.7207 32.4112 21.9205C32.4686 22.1195 32.5096 22.3143 32.5343 22.505C32.5689 22.6843 32.5932 22.8697 32.6073 23.0612C32.632 23.2519 32.6525 23.4589 32.6689 23.6823C32.672 23.7249 32.649 23.7747 32.5997 23.8318C32.5603 23.8775 32.5319 23.9277 32.5145 23.9824C32.479 24.0813 32.446 24.1425 32.4157 24.1662C32.396 24.189 32.3554 24.2187 32.2939 24.2553C32.1496 24.3301 32.0233 24.4303 31.9149 24.5559C31.7618 24.3639 31.6488 24.1369 31.5761 23.8749C31.514 23.6121 31.4618 23.3378 31.4194 23.0522C31.3877 22.7657 31.3506 22.4797 31.3082 22.194C31.2757 21.8969 31.2174 21.6124 31.1333 21.3405C31.0904 21.1939 31.0936 21.0921 31.1429 21.035C31.1922 20.9779 31.248 20.9364 31.3102 20.9104C31.3831 20.8837 31.4641 20.8938 31.5531 20.9407C31.6527 20.9868 31.7471 21.0334 31.8361 21.0803C31.9137 21.1174 31.9848 21.1389 32.0494 21.1449C32.1238 21.1394 32.1802 21.1781 32.2183 21.2608ZM39.5567 20.2726C39.5795 20.2923 39.5962 20.3018 39.6069 20.301C39.6175 20.3002 39.6236 20.3105 39.6252 20.3317C39.6161 20.3538 39.5915 20.3823 39.5512 20.4174C39.5209 20.441 39.4582 20.4617 39.3633 20.4793C39.3321 20.4923 39.2912 20.5167 39.2403 20.5525C39.1887 20.5777 39.1473 20.5968 39.1162 20.6098C38.8336 20.6947 38.4975 20.7782 38.1078 20.8603C37.7288 20.9416 37.3333 21.0188 36.9216 21.0918C36.9277 21.4657 36.9424 21.8122 36.9659 22.1314C36.9999 22.4497 37.0362 22.7252 37.0747 22.9576C37.1092 23.1369 37.201 23.2211 37.3499 23.2101C37.4981 23.1886 37.65 23.1453 37.8056 23.0804C37.8474 23.0667 37.9556 23.0106 38.1302 22.9122C38.3146 22.8024 38.5249 22.68 38.761 22.545C39.0069 22.3986 39.2631 22.2461 39.5295 22.0875C39.7952 21.9182 40.0354 21.7669 40.2502 21.6335C40.2611 21.7824 40.1919 21.9319 40.0425 22.0819C39.9629 22.1626 39.8722 22.2388 39.7705 22.3104C39.6795 22.3813 39.5835 22.4578 39.4826 22.5401C39.371 22.6232 39.2971 22.7088 39.2608 22.7971C39.2245 22.8853 39.1354 22.9827 38.9935 23.0894C38.7302 23.2906 38.4444 23.4774 38.1362 23.6497C37.828 23.8221 37.5486 23.9496 37.298 24.0322C37.2144 24.0597 37.1248 24.077 37.0291 24.084C36.944 24.0902 36.86 24.1125 36.7773 24.1506C36.6535 24.2132 36.5517 24.21 36.4717 24.141C36.4024 24.0712 36.3521 23.9679 36.3206 23.8312C36.2492 23.4407 36.1864 23.0229 36.1323 22.5776C36.0889 22.1316 36.0556 21.6795 36.0327 21.2213C35.7151 21.266 35.418 21.2985 35.1414 21.3188C34.8747 21.3277 34.6551 21.3225 34.4825 21.3031C34.3214 21.2935 34.1701 21.2725 34.0287 21.2401C33.8971 21.1963 33.7742 21.1251 33.66 21.0266C33.5643 21.0336 33.5293 20.9934 33.5549 20.906C33.5904 20.8071 33.6165 20.725 33.6331 20.6596C33.8557 20.6325 34.1794 20.598 34.6041 20.5562C35.0387 20.5028 35.5052 20.4472 36.0036 20.3892C35.9813 19.5031 35.9956 18.6785 36.0465 17.9154C36.0975 17.1523 36.1837 16.5791 36.3053 16.1958C36.2982 16.1001 36.3308 16.0335 36.4029 15.9961C36.4849 15.9473 36.5665 15.8932 36.6477 15.8338C36.6887 15.8094 36.7293 15.7796 36.7695 15.7446C36.8195 15.6981 36.8871 15.6718 36.9722 15.6655C37.0719 15.7117 37.1445 15.7545 37.1902 15.7939C37.2351 15.8227 37.2595 15.8637 37.2634 15.9169C37.2673 15.9701 37.2561 16.0351 37.2296 16.1119C37.2032 16.1887 37.173 16.2872 37.139 16.4073C37.1201 16.4408 37.0979 16.5761 37.0726 16.8133C37.0472 17.0504 37.0212 17.3518 36.9946 17.7174C36.9778 18.0716 36.9596 18.4794 36.9401 18.9407C36.9197 19.3914 36.9103 19.8466 36.912 20.3064C37.2631 20.2806 37.5986 20.2613 37.9185 20.2485C38.2376 20.2251 38.5203 20.215 38.7666 20.2183L39.5567 20.2726ZM41.8259 20.5551C42.0441 20.1755 42.3155 19.8667 42.6403 19.629C42.9643 19.3806 43.3509 19.2559 43.8 19.255C43.8646 19.261 43.9357 19.2825 44.0133 19.3196C44.0901 19.346 44.1616 19.3729 44.2278 19.4001C44.3936 19.4735 44.5519 19.5902 44.7027 19.7502C44.8527 19.8996 44.9887 20.0768 45.1107 20.2818C45.2426 20.4753 45.354 20.681 45.4449 20.899C45.5357 21.1169 45.6042 21.3204 45.6501 21.5096C45.68 21.625 45.7069 21.7728 45.7308 21.9528C45.7547 22.1329 45.7722 22.2974 45.7831 22.4463C45.7618 22.4479 45.7516 22.454 45.7524 22.4646C45.7532 22.4753 45.7425 22.476 45.7205 22.467C45.6322 22.4307 45.5588 22.3772 45.5001 22.3067C45.4773 22.287 45.4438 22.268 45.3997 22.2499C45.3548 22.2211 45.3255 22.1858 45.3117 22.144C45.2826 22.0392 45.2459 21.9029 45.2014 21.735C45.1669 21.5557 45.1103 21.3674 45.0316 21.17C44.9529 20.9725 44.8587 20.7816 44.7489 20.5971C44.6383 20.402 44.5084 20.2351 44.3591 20.0963C44.302 20.047 44.2514 20.0133 44.2073 19.9952C44.1731 19.9656 44.1282 19.9368 44.0726 19.9088C44.0163 19.8702 43.9346 19.8494 43.8274 19.8466C43.7195 19.8331 43.6291 19.8398 43.5562 19.8665C43.3792 19.933 43.1952 20.0481 43.004 20.2119C42.8128 20.3757 42.6509 20.5747 42.5184 20.8091C42.3851 21.0328 42.2971 21.2906 42.2544 21.5825C42.2116 21.8744 42.2609 22.181 42.4021 22.5022C42.4411 22.5955 42.4682 22.6738 42.4835 22.7368C42.4981 22.7892 42.502 22.8424 42.4953 22.8964C42.4992 22.9496 42.4875 23.0093 42.4603 23.0754C42.433 23.1416 42.3967 23.2298 42.3514 23.3401C42.2756 23.474 42.1812 23.5719 42.0681 23.6337C41.9656 23.6947 41.8742 23.7602 41.7938 23.8303C41.4204 22.97 41.1162 22.1046 40.8812 21.2342C40.6567 20.3629 40.4943 19.5353 40.394 18.7512C40.3042 17.9663 40.2781 17.2463 40.3155 16.5911C40.3522 15.9253 40.4449 15.3677 40.5937 14.9182C40.6162 14.7882 40.6815 14.73 40.7894 14.7434C40.8434 14.7502 40.8875 14.7683 40.9218 14.7979C40.956 14.8275 41.0017 14.8669 41.0588 14.9162C41.1053 14.9662 41.146 15.0114 41.1811 15.0516C41.2153 15.0812 41.2401 15.1275 41.2554 15.1905C41.27 15.2429 41.2985 15.2676 41.3411 15.2644C41.3836 15.2613 41.4015 15.2867 41.3948 15.3407C41.342 15.9328 41.3181 16.48 41.3229 16.9824C41.3277 17.4847 41.351 17.9482 41.3929 18.373C41.4455 18.7969 41.5116 19.1878 41.5914 19.5456C41.6711 19.9034 41.7493 20.2399 41.8259 20.5551ZM53.8567 19.7517C53.7396 19.7603 53.6283 19.7738 53.5227 19.7922C53.4164 19.8001 53.305 19.8136 53.1888 19.8328C53.2403 20.0964 53.2822 20.3768 53.3148 20.6738C53.3579 20.9701 53.3802 21.2733 53.3816 21.5834C53.3822 21.8828 53.3615 22.1838 53.3195 22.4864C53.2875 22.7775 53.2272 23.0493 53.1388 23.3018C53.1206 23.3459 53.1177 23.3782 53.1299 23.3987C53.1535 23.4291 53.1562 23.4663 53.1381 23.5104C53.1077 23.534 53.0823 23.5519 53.0618 23.5641C53.0519 23.5756 53.0372 23.5927 53.0175 23.6155C52.8854 23.7108 52.7768 23.7615 52.6917 23.7678C52.6705 23.7694 52.6529 23.7493 52.6392 23.7075C52.636 23.6649 52.6436 23.6216 52.6617 23.5775C52.7451 23.1115 52.733 22.5829 52.6255 21.9919C52.5277 21.3894 52.3485 20.6967 52.0878 19.9137C51.7261 19.9402 51.3563 19.93 50.9785 19.8829C50.9679 19.8836 50.936 19.886 50.8828 19.8899C50.8402 19.893 50.7924 19.8965 50.7392 19.9004C50.6852 19.8937 50.6366 19.8866 50.5932 19.8791C50.5491 19.8609 50.5259 19.8359 50.5235 19.804C50.5295 19.7394 50.5104 19.698 50.4663 19.6798C50.432 19.6503 50.4141 19.6248 50.4126 19.6036C50.3965 19.5299 50.3986 19.4869 50.4191 19.4747C50.4495 19.4511 50.4909 19.432 50.5433 19.4175C50.721 19.3617 50.9151 19.31 51.1255 19.2624C51.3465 19.2141 51.5786 19.1703 51.8217 19.1311C51.7958 19.0688 51.782 19.027 51.7804 19.0058C51.6254 18.6428 51.5 18.2456 51.4041 17.8141C51.3083 17.3827 51.2496 16.9484 51.2282 16.5115C51.2175 16.0738 51.2455 15.6546 51.3124 15.254C51.389 14.8419 51.5175 14.4795 51.6977 14.1668C51.7644 14.055 51.8547 13.9735 51.9686 13.9223C52.0202 13.8971 52.0718 13.872 52.1234 13.8468C52.1857 13.8208 52.2438 13.8112 52.2978 13.8179C52.5137 13.8448 52.7106 13.9052 52.8887 13.9991C53.0659 14.0824 53.2291 14.1934 53.3784 14.3321C53.5375 14.4595 53.6875 14.6089 53.8284 14.7804C53.9686 14.9412 54.1038 15.1078 54.2341 15.28C54.3384 15.39 54.3451 15.4804 54.254 15.5513C54.163 15.6221 54.0822 15.6869 54.0116 15.7456C53.9312 15.8156 53.8378 15.8546 53.7314 15.8624C53.6554 15.8466 53.5774 15.8042 53.4975 15.7352C53.4175 15.6662 53.3224 15.609 53.2121 15.5636C53.155 15.5143 53.0812 15.4556 52.9906 15.3874C52.8993 15.3085 52.8034 15.2407 52.703 15.1839C52.6025 15.1271 52.5082 15.0806 52.42 15.0443C52.3317 15.008 52.2618 15.0024 52.2102 15.0276C52.1798 15.0512 52.1366 15.1186 52.0806 15.2296C52.0353 15.3399 51.9997 15.4388 51.9741 15.5262C51.9168 15.7657 51.9222 15.9846 51.9902 16.1828C52.1554 16.6841 52.3198 17.1747 52.4834 17.6546C52.6462 18.124 52.8055 18.5454 52.9613 18.919C52.9636 18.9509 52.9709 18.9771 52.9831 18.9976C53.398 18.9672 53.8046 18.9694 54.2028 19.0043C54.611 19.0278 54.9846 19.0913 55.3238 19.1947C55.3786 19.2121 55.335 19.2741 55.1931 19.3808C55.1119 19.4402 55.0341 19.4727 54.9596 19.4781C54.895 19.4722 54.8213 19.4883 54.7385 19.5265C54.5935 19.5906 54.4473 19.6388 54.2999 19.671C54.1526 19.7032 54.0048 19.7301 53.8567 19.7517ZM60.9564 17.0644C60.9634 17.1601 60.9884 17.2813 61.0312 17.4279C61.0733 17.5638 61.0708 17.6763 61.0239 17.7653C61.0042 17.7881 60.9967 17.8315 61.0014 17.8953C61.0053 17.9485 60.9921 17.9869 60.9617 18.0105L60.7449 17.8981C60.5684 17.8255 60.3742 17.8023 60.1622 17.8286C59.9609 17.8541 59.757 17.9172 59.5505 18.0179C59.4062 18.0927 59.2639 18.194 59.1236 18.322C58.9931 18.4385 58.8691 18.5706 58.7516 18.7183C58.6341 18.866 58.5276 19.0182 58.4322 19.1749C58.3368 19.3317 58.2569 19.4819 58.1926 19.6257C58.045 19.9467 57.9873 20.3253 58.0193 20.7615C58.062 21.1968 58.263 21.7489 58.6223 22.4177C58.6277 22.4922 58.5812 22.5865 58.4826 22.7007C58.4629 22.7236 58.4387 22.7574 58.4099 22.8023C58.3811 22.8472 58.3568 22.8811 58.3371 22.9039C58.2575 22.9846 58.209 23.0524 58.1916 23.1071C58.1849 23.1611 58.1557 23.2007 58.1041 23.2259C58.0213 23.264 57.9361 23.1954 57.8483 23.02C57.644 22.7142 57.44 22.3388 57.2362 21.8939C57.0422 21.4375 56.8528 20.9701 56.6679 20.4917C56.4937 20.0125 56.3317 19.5538 56.1818 19.1156C56.0418 18.666 55.9286 18.2893 55.8421 17.9855C55.804 17.9027 55.7928 17.8233 55.8086 17.7473C55.8236 17.6606 55.8504 17.5891 55.8891 17.5328C55.9179 17.4879 55.9543 17.4746 55.9984 17.4927C56.0532 17.5101 56.0965 17.5176 56.1284 17.5152C56.2667 17.5051 56.3538 17.5254 56.3896 17.5763C56.4254 17.6271 56.4837 17.6924 56.5644 17.772C56.7259 17.9313 56.8597 18.1514 56.9659 18.4324C57.0721 18.7133 57.2035 19.0459 57.36 19.4302C57.5091 19.1304 57.7069 18.8378 57.9533 18.5524C58.2104 18.2661 58.4907 18.0049 58.7942 17.7686C59.0969 17.5218 59.4134 17.3167 59.7436 17.1534C60.0739 16.9901 60.3974 16.8808 60.7142 16.8255C60.7773 16.8101 60.832 16.8275 60.8785 16.8776C60.9348 16.9162 60.9608 16.9785 60.9564 17.0644ZM63.7315 16.7643C63.8228 16.8431 63.8598 16.9099 63.8425 16.9647C63.8357 17.0187 63.8054 17.0423 63.7514 17.0355C63.6131 17.0457 63.46 17.073 63.2922 17.1174C63.1342 17.1504 62.9602 17.1846 62.7703 17.2199C62.5902 17.2438 62.3987 17.2579 62.1958 17.2621C61.9929 17.2663 61.7881 17.2439 61.5813 17.1949C61.4899 17.1161 61.4844 17.0416 61.5648 16.9715C61.6551 16.89 61.7218 16.7782 61.7648 16.636C61.7897 16.5379 61.8275 16.471 61.8784 16.4351C61.9391 16.3879 62.001 16.3566 62.064 16.3413C62.181 16.3327 62.3266 16.3487 62.5007 16.3894C62.6847 16.4187 62.8356 16.4343 62.9534 16.4364C63.1358 16.4444 63.2871 16.4654 63.4072 16.4993C63.5266 16.5226 63.6347 16.611 63.7315 16.7643ZM63.5558 18.959C63.6376 19.199 63.7019 19.4189 63.7486 19.6187C63.806 19.8177 63.8471 20.0125 63.8718 20.2032C63.9063 20.3825 63.9306 20.5679 63.9447 20.7594C63.9694 20.9501 63.99 21.1571 64.0064 21.3805C64.0095 21.4231 63.9864 21.4729 63.9371 21.53C63.8977 21.5757 63.8693 21.6259 63.8519 21.6807C63.8164 21.7795 63.7835 21.8408 63.7531 21.8644C63.7334 21.8872 63.6928 21.9169 63.6313 21.9536C63.4871 22.0283 63.3608 22.1285 63.2523 22.2541C63.0992 22.0622 62.9863 21.8352 62.9135 21.5731C62.8515 21.3103 62.7992 21.036 62.7569 20.7504C62.7251 20.4639 62.6881 20.1779 62.6457 19.8922C62.6132 19.5951 62.5549 19.3106 62.4707 19.0387C62.4279 18.8922 62.4311 18.7903 62.4804 18.7332C62.5296 18.6761 62.5854 18.6346 62.6477 18.6086C62.7206 18.5819 62.8015 18.592 62.8905 18.6389C62.9902 18.6851 63.0845 18.7316 63.1735 18.7786C63.2511 18.8156 63.3222 18.8372 63.3868 18.8431C63.4613 18.8376 63.5176 18.8763 63.5558 18.959ZM68.7337 16.7338C68.8136 16.8028 68.889 16.8828 68.9599 16.9738C69.03 17.0543 69.0898 17.1408 69.1394 17.2334C69.2393 17.4293 69.2967 17.6283 69.3116 17.8304C69.3363 18.0211 69.279 18.2606 69.1397 18.5489C68.9808 18.86 68.7651 19.1272 68.4927 19.3504C68.231 19.5729 67.9372 19.7228 67.6113 19.8002C67.3804 19.86 67.1464 19.8771 66.9092 19.8518C66.6712 19.8158 66.44 19.7258 66.2156 19.5819C66.1556 19.6398 66.1083 19.7234 66.0736 19.833C66.0487 19.931 66.0447 20.0222 66.0616 20.1066C66.0938 20.2539 66.1591 20.4149 66.2575 20.5895C66.3657 20.7527 66.4754 20.8623 66.5864 20.9183C66.7728 20.9795 67.0231 20.9664 67.3376 20.8792C67.6627 20.7911 68.0014 20.67 68.3537 20.5158C68.7159 20.3501 69.0666 20.1746 69.406 19.9893C69.7552 19.7925 70.0531 19.6262 70.2998 19.4904C70.3045 19.5543 70.2917 19.598 70.2613 19.6216C70.2416 19.6445 70.2124 19.684 70.1738 19.7403C70.1245 19.7974 70.0707 19.8656 70.0123 19.9447C69.954 20.0239 69.8842 20.0932 69.803 20.1526C69.7013 20.2243 69.6278 20.3152 69.5824 20.4255C69.5362 20.5252 69.4418 20.623 69.2991 20.719C69.1048 20.8403 68.9056 20.9672 68.7014 21.0999C68.5071 21.2211 68.3124 21.337 68.1173 21.4476C67.9215 21.5475 67.7191 21.6319 67.5102 21.7007C67.3113 21.7581 67.1099 21.7836 66.9062 21.7772C66.7664 21.7661 66.6466 21.7374 66.547 21.6913C66.458 21.6443 66.3457 21.5724 66.2102 21.4754C66.1425 21.4268 66.0641 21.3791 65.9751 21.3322C65.8861 21.2853 65.8184 21.2367 65.7719 21.1867C65.5715 20.934 65.4285 20.6611 65.3428 20.3679C65.2563 20.0641 65.2181 19.7621 65.2281 19.4619C65.248 19.1503 65.3059 18.8465 65.4018 18.5507C65.497 18.2443 65.6313 17.9617 65.8048 17.7029C65.901 17.5568 66.0185 17.4091 66.1573 17.2599C66.3059 17.0993 66.4668 16.9591 66.6398 16.8394C66.8227 16.7083 67.0128 16.6035 67.2103 16.5248C67.4184 16.4453 67.6292 16.4031 67.8427 16.3981C67.9286 16.4025 68.005 16.4236 68.072 16.4615C68.1488 16.4879 68.2313 16.5193 68.3195 16.5556C68.3743 16.573 68.4404 16.6002 68.518 16.6373C68.6055 16.663 68.6774 16.6951 68.7337 16.7338ZM68.3401 17.7092C68.3118 17.615 68.247 17.5342 68.1458 17.4668C68.0446 17.3994 67.9339 17.3487 67.8138 17.3147C67.6928 17.2701 67.5735 17.2468 67.4557 17.2448C67.3379 17.2427 67.2532 17.2543 67.2015 17.2795C67.1188 17.3176 67.022 17.3836 66.9113 17.4773C66.8103 17.5595 66.7106 17.6578 66.612 17.772C66.5241 17.8854 66.437 18.0094 66.3506 18.1441C66.2741 18.2674 66.2185 18.3838 66.1837 18.4933C66.1648 18.5268 66.1474 18.5815 66.1316 18.6575C66.1257 18.7221 66.1345 18.7696 66.1581 18.8C66.2975 18.9502 66.4948 19.0159 66.7502 18.9971C66.9948 18.9792 67.2512 18.9015 67.5192 18.7642C67.7978 18.6261 67.9909 18.4889 68.0986 18.3526C68.1076 18.3306 68.1262 18.2918 68.1542 18.2362C68.1928 18.1799 68.2258 18.1187 68.253 18.0525C68.2802 17.9863 68.3021 17.9206 68.3187 17.8552C68.3459 17.789 68.3531 17.7403 68.3401 17.7092ZM71.745 19.272C71.9125 19.0779 72.0793 18.8731 72.2453 18.6577C72.4212 18.4309 72.6031 18.2143 72.7912 18.008C72.9792 17.8016 73.1742 17.6162 73.376 17.4516C73.577 17.2764 73.7911 17.1324 74.0181 17.0194C74.0697 16.9942 74.1172 16.9854 74.1605 16.9929C74.2145 16.9997 74.2673 16.9904 74.3189 16.9652C74.404 16.959 74.4785 16.9535 74.5423 16.9488C74.6061 16.9441 74.6662 16.9611 74.7225 16.9998C74.8785 17.0846 75.0057 17.2143 75.104 17.3889C75.2123 17.552 75.3061 17.7377 75.3856 17.9457C75.4367 18.0596 75.4662 18.1698 75.474 18.2761C75.4925 18.3817 75.5334 18.5017 75.5967 18.6361C75.6754 18.8336 75.7598 19.0359 75.8499 19.2432C75.9498 19.4391 75.9962 19.6335 75.989 19.8266C75.9823 19.8806 75.9698 19.9296 75.9517 19.9737C75.9327 20.0072 75.9093 20.0517 75.8813 20.1072C75.8631 20.1513 75.8298 20.2073 75.7813 20.275C75.7328 20.3427 75.6831 20.3945 75.6323 20.4303C75.5822 20.4768 75.5477 20.5168 75.5288 20.5502C75.5197 20.5723 75.4738 20.6024 75.391 20.6406C75.2379 20.4486 75.1155 20.2384 75.0238 20.0098C74.9322 19.7812 74.8504 19.5412 74.7784 19.2898C74.7065 19.0384 74.6395 18.7813 74.5774 18.5185C74.5153 18.2557 74.4422 17.9883 74.358 17.7164C74.3313 17.6435 74.259 17.606 74.1412 17.604C74.034 17.6012 73.9091 17.6478 73.7664 17.7438C73.6336 17.8284 73.4937 17.9617 73.3466 18.1436C73.1995 18.3256 73.0719 18.5542 72.9638 18.8295C72.8928 19.0273 72.8278 19.2352 72.769 19.4535C72.7094 19.6611 72.6395 19.8747 72.5594 20.0945C72.4891 20.3029 72.3976 20.5128 72.2848 20.7243C72.1818 20.9244 72.0511 21.1105 71.8926 21.2826C71.8434 21.3397 71.8065 21.3477 71.7821 21.3067C71.7577 21.2657 71.7018 21.2324 71.6143 21.2068C71.5489 21.1902 71.5102 21.1716 71.498 21.1511C71.4964 21.1299 71.4757 21.0672 71.436 20.9632C71.3558 20.7445 71.2679 20.4942 71.1723 20.2125C71.0874 19.9299 70.9907 19.6322 70.8821 19.3193C70.7842 19.0057 70.681 18.6924 70.5724 18.3795C70.4631 18.056 70.3553 17.7537 70.2491 17.4727L70.1323 17.1925C70.1504 17.1484 70.1849 17.1085 70.2358 17.0726C70.2973 17.036 70.3592 17.0047 70.4214 16.9788C70.4837 16.9528 70.5532 16.9531 70.63 16.9795C70.7068 17.0059 70.7665 17.0176 70.8091 17.0145C70.9261 17.0059 71.0326 17.0729 71.1287 17.2156C71.2353 17.3575 71.3292 17.5431 71.4102 17.7725C71.4905 17.9912 71.5567 18.2377 71.6089 18.5119C71.671 18.7747 71.7164 19.0281 71.745 19.272ZM79.6909 12.0465C79.7409 12.7273 79.8516 13.3609 80.023 13.9473C80.1937 14.523 80.3442 15.1162 80.4746 15.727C80.6058 16.3484 80.71 16.9664 80.7873 17.5811C80.8637 18.1851 80.9477 18.7458 81.0392 19.2631C81.0119 19.3293 81.0014 19.4049 81.0077 19.49C81.0246 19.5744 81.0084 19.6451 80.9591 19.7022C80.8105 19.8628 80.6402 20.0197 80.4482 20.1729C80.2562 20.326 80.0422 20.4701 79.8061 20.6051C79.7242 20.6539 79.6406 20.6814 79.5555 20.6876C79.4696 20.6833 79.3849 20.6948 79.3014 20.7223C79.2072 20.7507 79.1081 20.7847 79.0041 20.8244C78.9107 20.8634 78.81 20.8761 78.702 20.8626C78.5827 20.8393 78.4409 20.8016 78.2766 20.7495C78.1116 20.6867 77.9458 20.6134 77.7792 20.5293C77.6126 20.4453 77.4558 20.3499 77.3089 20.243C77.1727 20.1354 77.0675 20.0148 76.9936 19.8811C76.832 19.2834 76.813 18.734 76.9367 18.2329C77.0709 17.731 77.2885 17.2712 77.5894 16.8534C77.628 16.7971 77.6785 16.7559 77.7407 16.7299C77.8022 16.6933 77.858 16.6518 77.9081 16.6054C77.9581 16.5589 78.0143 16.5227 78.0765 16.4967C78.138 16.4601 78.2117 16.444 78.2976 16.4484C78.5119 16.454 78.7499 16.49 79.0114 16.5564C79.2722 16.6121 79.4725 16.6455 79.6124 16.6566L79.5948 16.4173C79.5745 16.1407 79.5329 15.8657 79.47 15.5922C79.417 15.3073 79.364 15.0224 79.311 14.7376C79.258 14.4527 79.2099 14.1621 79.1667 13.8658C79.1335 13.5581 79.1264 13.2431 79.1455 12.9208C79.1499 12.8349 79.1649 12.7483 79.1905 12.6608C79.2162 12.5734 79.2366 12.4863 79.2516 12.3996C79.2689 12.3449 79.2966 12.284 79.3344 12.2171C79.3715 12.1395 79.4159 12.0881 79.4675 12.0629C79.5191 12.0377 79.5487 12.0035 79.5562 11.9601C79.5629 11.9062 79.588 11.8829 79.6313 11.8905C79.6746 11.898 79.6918 11.9128 79.6827 11.9348C79.6842 11.9561 79.687 11.9933 79.6909 12.0465ZM80.1413 19.4895C80.1434 19.3717 80.1313 19.2068 80.105 18.9948C80.0886 18.7714 80.0399 18.5451 79.9589 18.3157C79.8778 18.0864 79.755 17.8708 79.5905 17.669C79.4366 17.4664 79.228 17.3213 78.9649 17.2336C78.8487 17.2529 78.7119 17.2843 78.5547 17.3279C78.4074 17.3601 78.2615 17.4136 78.1173 17.4884C77.9731 17.5632 77.8414 17.6637 77.7223 17.7901C77.6025 17.9059 77.5116 18.0516 77.4496 18.2273C77.3999 18.4235 77.4182 18.6735 77.5047 18.9773C77.5904 19.2704 77.7817 19.5452 78.0786 19.8014C78.2452 19.8855 78.4197 19.9315 78.6022 19.9395C78.7838 19.9368 78.9642 19.9182 79.1435 19.8837C79.3334 19.8483 79.5112 19.7925 79.6767 19.7162C79.8528 19.639 80.0077 19.5635 80.1413 19.4895ZM85.8635 16.0691C85.8221 16.2326 85.7885 16.3581 85.7628 16.4455C85.7372 16.533 85.6901 16.5471 85.6216 16.488C85.4617 16.35 85.2691 16.2037 85.0439 16.0491C84.8186 15.8946 84.5501 15.8073 84.2385 15.7874C84.0348 15.781 83.8187 15.8236 83.5901 15.9153C83.3714 15.9955 83.2118 16.1516 83.1112 16.3836C83.0188 16.5829 83.0197 16.8128 83.1137 17.0733C83.1978 17.3452 83.351 17.5371 83.5731 17.6492C83.8051 17.7498 84.0568 17.8276 84.3282 17.8825C84.6095 17.926 84.8904 17.9642 85.1709 17.9971C85.462 18.0292 85.7137 18.1069 85.926 18.2304C85.9922 18.2576 86.044 18.3073 86.0813 18.3794C86.1286 18.4401 86.1754 18.4955 86.2219 18.5455C86.2798 18.6055 86.3315 18.6551 86.3772 18.6946C86.4335 18.7332 86.4861 18.7935 86.5349 18.8755C86.5715 18.937 86.6146 19.014 86.6642 19.1067C86.713 19.1886 86.7307 19.2836 86.7172 19.3915C86.6954 19.5322 86.5734 19.6909 86.3511 19.8676C85.8647 20.2349 85.3466 20.535 84.7969 20.7679C84.2479 21.0114 83.6549 21.0924 83.0179 21.0109C82.9418 20.9951 82.8513 20.9269 82.7462 20.8062C82.6418 20.6962 82.5562 20.6223 82.4892 20.5845C82.312 20.5012 82.186 20.3875 82.1112 20.2432C82.0058 19.9729 81.941 19.6728 81.9167 19.3431C81.9089 19.2367 81.9214 19.1876 81.9541 19.1959C81.9966 19.1928 82.0339 19.1901 82.0658 19.1877C82.1296 19.183 82.2019 19.2205 82.2826 19.3001C82.3739 19.379 82.4665 19.4738 82.5602 19.5846C82.6637 19.6839 82.7562 19.7787 82.8377 19.869C82.9291 19.9479 83.0014 19.9853 83.0546 19.9814C83.2417 20.0532 83.4633 20.0851 83.7194 20.077C83.9754 20.0689 84.2292 20.0288 84.4806 19.9569C84.7419 19.8735 84.9795 19.7598 85.1935 19.6158C85.4174 19.4603 85.5911 19.2764 85.7145 19.0641C85.7106 19.0109 85.6421 18.9518 85.509 18.8867C85.3865 18.8208 85.2264 18.7524 85.0286 18.6813C84.8301 18.5996 84.6103 18.5195 84.3693 18.441C84.1388 18.3616 83.9133 18.2766 83.6927 18.1858C83.4828 18.0943 83.2938 17.9959 83.1256 17.8906C82.9681 17.7845 82.8584 17.6749 82.7966 17.5618C82.7585 17.4791 82.715 17.3967 82.6662 17.3147C82.6166 17.2221 82.5849 17.1549 82.5712 17.1131C82.5008 16.883 82.4737 16.6604 82.49 16.4453C82.5055 16.2195 82.5549 16.018 82.6381 15.8408C82.7214 15.6636 82.8389 15.5159 82.9906 15.3978C83.1416 15.2691 83.317 15.1813 83.5168 15.1345C83.8328 15.0686 84.1732 15.0435 84.538 15.0595C84.9127 15.0641 85.2514 15.1622 85.5543 15.3539C85.6449 15.4221 85.7085 15.4869 85.7451 15.5484C85.7923 15.6091 85.8297 15.6812 85.8572 15.7648C85.8718 15.8172 85.8863 15.8696 85.9008 15.922C85.9146 15.9638 85.9022 16.0128 85.8635 16.0691Z" fill="black"/>
<defs>
<linearGradient id="paint0_linear_741_3143" x1="1" y1="11" x2="117" y2="11" gradientUnits="userSpaceOnUse">
<stop stop-color="#FF0000"/>
<stop offset="0.420393" stop-color="#F96623"/>
<stop offset="1" stop-color="#FAFF00"/>
</linearGradient>
<linearGradient id="paint1_linear_741_3143" x1="7.62753e-07" y1="11" x2="117" y2="11" gradientUnits="userSpaceOnUse">
<stop stop-color="#FF0000"/>
<stop offset="0.420393" stop-color="#F96623"/>
<stop offset="1" stop-color="#FAFF00"/>
</linearGradient>
</defs>
</svg>
